<?xml version="1.0" encoding="UTF-8" standalone="no"?><svg xmlns="http://www.w3.org/2000/svg" xmlns:xlink="http://www.w3.org/1999/xlink" fill="#000000" height="268.7" preserveAspectRatio="xMidYMid meet" version="1" viewBox="-0.0 -0.0 257.2 268.7" width="257.2" zoomAndPan="magnify"><g data-name="Layer 2"><g data-name="Layer 1" fill="#b0e1ff" id="change1_1"><path d="M10.29,154.81h0A145.54,145.54,0,0,1,155.84,9.26h0a145,145,0,0,1,92.07,32.82A145.11,145.11,0,0,0,145.55,0h0A145.54,145.54,0,0,0,0,145.55H0A145.28,145.28,0,0,0,53.48,258.28,145.11,145.11,0,0,1,10.29,154.81Z" opacity="0.2"/><path d="M24.66,165.19h0a143.1,143.1,0,0,1,143.1-143.1h0a142.49,142.49,0,0,1,85.15,28.08q-2.31-2.51-4.74-4.91A142.49,142.49,0,0,0,157.65,13h0a143.1,143.1,0,0,0-143.1,143.1h0A142.7,142.7,0,0,0,57,257.82c1.76,1.44,3.56,2.83,5.38,4.19A142.61,142.61,0,0,1,24.66,165.19Z" opacity="0.6"/><path d="M180.41,34.28a140.85,140.85,0,0,1,76.72,22.59c-.83-1-1.68-1.9-2.53-2.83a140.91,140.91,0,0,0-84.19-27.76h0a141.5,141.5,0,0,0-141.5,141.5h0a141,141,0,0,0,37.3,95.73q3.66,2.7,7.47,5.17A141.5,141.5,0,0,1,180.41,34.28Z"/></g></g></svg>